PathFileType	4	(X/Y/Z)	C:\Users\chris\Documents\GitHub\baseballds\vids\pitch6_Sports2D\pitch6_Sports2D_m_person00.trc
DataRate	CameraRate	NumFrames	NumMarkers	Units	OrigDataRate	OrigDataStartFrame	OrigNumFrames
30	30	7	22	m	30	46	186
Frame#	Time	Hip			RHip			RKnee			RAnkle			RBigToe			RSmallToe			RHeel			LHip			LKnee			LAnkle			LBigToe			LSmallToe			LHeel			Neck			Head			Nose			RShoulder			RElbow			RWrist			LShoulder			LElbow			LWrist		
		X1	Y1	Z1	X2	Y2	Z2	X3	Y3	Z3	X4	Y4	Z4	X5	Y5	Z5	X6	Y6	Z6	X7	Y7	Z7	X8	Y8	Z8	X9	Y9	Z9	X10	Y10	Z10	X11	Y11	Z11	X12	Y12	Z12	X13	Y13	Z13	X14	Y14	Z14	X15	Y15	Z15	X16	Y16	Z16	X17	Y17	Z17	X18	Y18	Z18	X19	Y19	Z19	X20	Y20	Z20	X21	Y21	Z21	X22	Y22	Z22
46	1.5333333333333332	5.159926649938817	0.648568535474011	0.0	4.986395096332296	0.4661003624926336	0.0	5.567251874067957	-0.00392734384952404	0.0	6.096281261349691	-0.4273566373985784	0.0	6.263246204690669	-0.5848514214896854	0.0	6.13133834226491	-0.6633743883401907	0.0	6.22161724983558	-0.4459373903100321	0.0	5.385867025161171	0.78228930120787	0.0	6.044749021931663	0.39029978176450714	0.0	6.682322295589621	0.11518270126533052	0.0	6.757218306769228	-0.12894568776565546	0.0	6.88883173068398	-0.021476731157640396	0.0	6.799719171307412	0.09846819714997172	0.0	4.237409533451883	1.3257017524390275	0.0	3.9199034006584537	1.6889450527219056	0.0	4.287013400119174	1.6614443865619228	0.0	4.069208458066204	0.9448511696368947	0.0	4.372266458658046	0.5417021482935263	0.0	4.741254904856415	0.7170013635046548	0.0	4.710049503874022	1.4980430670875047	0.0	5.22576447804723	1.2630097528268351	0.0	5.214062636200057	0.9822084805940756	0.0
47	1.5666666666666667	5.172031015722455	0.6520516161772641	0.0	4.999301730122912	0.47129723787839245	0.0	5.576357746497731	0.0008626397891722051	0.0	6.1027829912546245	-0.4225492386216309	0.0	6.271835646163641	-0.5746356377066165	0.0	6.139519113438421	-0.6546042796322536	0.0	6.223459526181221	-0.43722885779127146	0.0	5.398288382549655	0.78748201095675	0.0	6.052864271765026	0.395011701587295	0.0	6.6865624030373985	0.11757361838237364	0.0	6.766118695826905	-0.12251447234713532	0.0	6.898706480807303	-0.0149160374747378	0.0	6.806587105106715	0.0974395089304903	0.0	4.253979997971274	1.3332315553906882	0.0	3.933031840140378	1.69782891390265	0.0	4.298872096640846	1.6695622175780456	0.0	4.081074913536622	0.9482323101799337	0.0	4.398366489635928	0.5505717289748179	0.0	4.771705750893876	0.730268802242857	0.0	4.724787076563055	1.5074132834440144	0.0	5.237478082582669	1.2696549530715673	0.0	5.221425226611699	0.9840045775423905	0.0
48	1.6	5.185176712806416	0.6572752761879957	0.0	5.012467032748552	0.4758243298750951	0.0	5.587436143055631	0.0070243147487937885	0.0	6.111830463715317	-0.4192606804244409	0.0	6.286288749929918	-0.569678113366888	0.0	6.151925305249518	-0.6517927997729845	0.0	6.231289110705076	-0.4324498923230694	0.0	5.414094837927296	0.7940446190478389	0.0	6.065109213370396	0.4006141785645613	0.0	6.698973656660165	0.12080832292922106	0.0	6.780251099834825	-0.11917252482595407	0.0	6.907932313926016	-0.011855813078178548	0.0	6.817125389901861	0.09861185729703884	0.0	4.268421634141151	1.3437763180044184	0.0	3.9455061457054397	1.7059730760757839	0.0	4.314401732528959	1.6789789676802123	0.0	4.089827838556877	0.954236736579566	0.0	4.411390198755602	0.5524705235662375	0.0	4.78812308441524	0.7410613017007751	0.0	4.734855417335639	1.516464776986222	0.0	5.2499711589714595	1.2803948400456944	0.0	5.2358479418796815	0.9883311374455096	0.0
49	1.6333333333333333	5.199677616848732	0.6614281306349326	0.0	5.025270654557166	0.4798784269021249	0.0	5.596149099404417	0.013140585144956907	0.0	6.120565120628979	-0.4194491856527871	0.0	6.29366798633958	-0.5681474147507055	0.0	6.1567851788831485	-0.6517212060320099	0.0	6.242924141648211	-0.43503578429271283	0.0	5.428094082743668	0.7993735354987839	0.0	6.075215691618808	0.405467495312435	0.0	6.709452502552336	0.12339755047858023	0.0	6.7893802438565345	-0.11617287101425564	0.0	6.915395406765884	-0.008900766528467432	0.0	6.8244707193356104	0.10347780159088185	0.0	4.2807398114653	1.352702280725311	0.0	3.959271780552821	1.7116895137050105	0.0	4.3314843474154845	1.6867781442866119	0.0	4.097461968572992	0.962208826058283	0.0	4.410074334591278	0.5532490657997977	0.0	4.80059179743895	0.7512274530046129	0.0	4.740575469332047	1.5232672456570786	0.0	5.259690400388189	1.2948123731658159	0.0	5.250355180360044	0.9969207304752876	0.0
50	1.6666666666666667	5.211538897279944	0.6650218923730656	0.0	5.0354307341786	0.4854316268043362	0.0	5.603871305526698	0.01592887052283211	0.0	6.127693812756838	-0.4190802407323726	0.0	6.296470258927903	-0.5680668772626664	0.0	6.15842809092856	-0.6510283122011546	0.0	6.2514402993537495	-0.43734809629900845	0.0	5.436974847274026	0.802393436513066	0.0	6.084187603473498	0.4081163283306962	0.0	6.7163539119585876	0.12526402311656587	0.0	6.796627396029112	-0.11234204468977026	0.0	6.923193314305333	-0.005059989079105122	0.0	6.8319263753164226	0.1098548519833366	0.0	4.292625673609823	1.3575614754211742	0.0	3.9709447316534043	1.7163917107782956	0.0	4.346222957939031	1.6933255952275437	0.0	4.105779907675374	0.9691047045268694	0.0	4.412765671448836	0.5570472238290375	0.0	4.81442296861187	0.7598331226898946	0.0	4.747975480731773	1.527059325472994	0.0	5.270110134311142	1.303784634604877	0.0	5.259930028637201	1.006723734213182	0.0
51	1.7	5.217364821064654	0.6688216436212635	0.0	5.041830059092162	0.49192912679770345	0.0	5.6119197326630745	0.01640191076901224	0.0	6.132996660710365	-0.4151900141190742	0.0	6.303004445466759	-0.567694017791225	0.0	6.1652262054958324	-0.6485747501873411	0.0	6.2538178434981555	-0.43385328297748355	0.0	5.4422885664015554	0.8041249005931304	0.0	6.092884502716773	0.4081028331084157	0.0	6.7234754893279085	0.12542606047686577	0.0	6.8062648595595405	-0.10915123518812318	0.0	6.932575999932225	-0.0011383059060281172	0.0	6.841206454444409	0.1122536112416094	0.0	4.303979403916348	1.3592095339244439	0.0	3.9806695964439545	1.7212266630789546	0.0	4.359133158988698	1.6999624977464505	0.0	4.115591654535824	0.9729937797495946	0.0	4.428636975943441	0.562029516764393	0.0	4.823917179560779	0.7639415597193043	0.0	4.759237543512873	1.529597475647844	0.0	5.283115256518029	1.303043238973095	0.0	5.2665322870579425	1.0120504433003248	0.0
52	1.7333333333333334	5.22103907346492	0.6711011164619066	0.0	5.047224391728798	0.4949150043102832	0.0	5.619782027636931	0.017887228998043132	0.0	6.138627414451687	-0.4129259715021166	0.0	6.312891842301139	-0.5662940635962395	0.0	6.176328252120715	-0.6455050932388665	0.0	6.257589624233541	-0.4315371380009539	0.0	5.448972863514441	0.8057227471678332	0.0	6.100395133222836	0.4075961449051726	0.0	6.734355094174091	0.12399967340002296	0.0	6.816138079692296	-0.10769984507871254	0.0	6.941530757123693	0.001525726375173671	0.0	6.851446366228092	0.10854894056812409	0.0	4.313332672999882	1.361829184604561	0.0	3.9919496502519713	1.7252757111062287	0.0	4.371625284580856	1.7049752720471554	0.0	4.126364073777827	0.9763091840195584	0.0	4.447066465286428	0.5676737329774242	0.0	4.8324498685905795	0.7666344821352528	0.0	4.770024766078607	1.5332751844961547	0.0	5.2955206214695	1.3006803365464095	0.0	5.273009411966645	1.0107603373544758	0.0
